<mxfile host="app.diagrams.net" agent="Mozilla/5.0 (Windows NT 10.0; Win64; x64) AppleWebKit/537.36 (KHTML, like Gecko) Chrome/134.0.0.0 YaBrowser/25.4.0.0 Safari/537.36" version="27.1.6">
  <diagram name="Страница — 1" id="z5o2DnHA_-fsH-nssHgH">
    <mxGraphModel grid="1" page="1" gridSize="10" guides="1" tooltips="1" connect="1" arrows="1" fold="1" pageScale="1" pageWidth="827" pageHeight="1169" math="0" shadow="0">
      <root>
        <mxCell id="0" />
        <mxCell id="1" parent="0" />
        <mxCell id="P5HjKtYgcSXGLR0DuAei-1" value="База данных" style="shape=umlActor;verticalLabelPosition=bottom;verticalAlign=top;html=1;" vertex="1" parent="1">
          <mxGeometry x="130" y="130" width="30" height="60" as="geometry" />
        </mxCell>
        <mxCell id="P5HjKtYgcSXGLR0DuAei-2" value="Сервер" style="shape=umlActor;verticalLabelPosition=bottom;verticalAlign=top;html=1;" vertex="1" parent="1">
          <mxGeometry x="110" y="490" width="30" height="60" as="geometry" />
        </mxCell>
        <mxCell id="P5HjKtYgcSXGLR0DuAei-3" value="Клиент" style="shape=umlActor;verticalLabelPosition=bottom;verticalAlign=top;html=1;" vertex="1" parent="1">
          <mxGeometry x="666" y="310" width="30" height="60" as="geometry" />
        </mxCell>
        <mxCell id="P5HjKtYgcSXGLR0DuAei-7" value="Хранение информации&lt;div&gt;о снах и пользователе&lt;/div&gt;" style="ellipse;whiteSpace=wrap;html=1;" vertex="1" parent="1">
          <mxGeometry x="220" y="20" width="120" height="70" as="geometry" />
        </mxCell>
        <mxCell id="P5HjKtYgcSXGLR0DuAei-9" value="" style="endArrow=classic;html=1;rounded=0;exitX=0.522;exitY=0.367;exitDx=0;exitDy=0;exitPerimeter=0;entryX=0.069;entryY=0.8;entryDx=0;entryDy=0;entryPerimeter=0;" edge="1" parent="1" source="P5HjKtYgcSXGLR0DuAei-1" target="P5HjKtYgcSXGLR0DuAei-7">
          <mxGeometry width="50" height="50" relative="1" as="geometry">
            <mxPoint x="160" y="140" as="sourcePoint" />
            <mxPoint x="210" y="90" as="targetPoint" />
          </mxGeometry>
        </mxCell>
        <mxCell id="P5HjKtYgcSXGLR0DuAei-10" value="Передача информации серверу" style="ellipse;whiteSpace=wrap;html=1;" vertex="1" parent="1">
          <mxGeometry x="230" y="170" width="120" height="70" as="geometry" />
        </mxCell>
        <mxCell id="P5HjKtYgcSXGLR0DuAei-11" value="" style="endArrow=classic;html=1;rounded=0;exitX=0.5;exitY=0.5;exitDx=0;exitDy=0;exitPerimeter=0;entryX=0;entryY=0.5;entryDx=0;entryDy=0;" edge="1" parent="1" source="P5HjKtYgcSXGLR0DuAei-1" target="P5HjKtYgcSXGLR0DuAei-10">
          <mxGeometry width="50" height="50" relative="1" as="geometry">
            <mxPoint x="180" y="286" as="sourcePoint" />
            <mxPoint x="252" y="220" as="targetPoint" />
          </mxGeometry>
        </mxCell>
        <mxCell id="P5HjKtYgcSXGLR0DuAei-12" value="Передача информации базе данных" style="ellipse;whiteSpace=wrap;html=1;" vertex="1" parent="1">
          <mxGeometry x="100" y="300" width="120" height="70" as="geometry" />
        </mxCell>
        <mxCell id="P5HjKtYgcSXGLR0DuAei-13" value="Передача информации&amp;nbsp; клиенту" style="ellipse;whiteSpace=wrap;html=1;" vertex="1" parent="1">
          <mxGeometry x="230" y="570" width="120" height="70" as="geometry" />
        </mxCell>
        <mxCell id="P5HjKtYgcSXGLR0DuAei-14" value="" style="endArrow=classic;html=1;rounded=0;exitX=0.5;exitY=0.5;exitDx=0;exitDy=0;exitPerimeter=0;entryX=0;entryY=0.5;entryDx=0;entryDy=0;" edge="1" parent="1" source="P5HjKtYgcSXGLR0DuAei-2" target="P5HjKtYgcSXGLR0DuAei-13">
          <mxGeometry width="50" height="50" relative="1" as="geometry">
            <mxPoint x="190" y="680" as="sourcePoint" />
            <mxPoint x="285" y="705" as="targetPoint" />
          </mxGeometry>
        </mxCell>
        <mxCell id="P5HjKtYgcSXGLR0DuAei-15" value="" style="endArrow=classic;html=1;rounded=0;exitX=0.5;exitY=0.5;exitDx=0;exitDy=0;exitPerimeter=0;" edge="1" parent="1" source="P5HjKtYgcSXGLR0DuAei-2" target="P5HjKtYgcSXGLR0DuAei-12">
          <mxGeometry width="50" height="50" relative="1" as="geometry">
            <mxPoint x="220" y="640" as="sourcePoint" />
            <mxPoint x="315" y="665" as="targetPoint" />
          </mxGeometry>
        </mxCell>
        <mxCell id="P5HjKtYgcSXGLR0DuAei-16" value="Расчет средней продолжительности сна для графика" style="ellipse;whiteSpace=wrap;html=1;" vertex="1" parent="1">
          <mxGeometry x="210" y="370" width="120" height="70" as="geometry" />
        </mxCell>
        <mxCell id="P5HjKtYgcSXGLR0DuAei-17" value="" style="endArrow=classic;html=1;rounded=0;exitX=0.5;exitY=0.5;exitDx=0;exitDy=0;exitPerimeter=0;entryX=0;entryY=1;entryDx=0;entryDy=0;" edge="1" parent="1" source="P5HjKtYgcSXGLR0DuAei-2" target="P5HjKtYgcSXGLR0DuAei-16">
          <mxGeometry width="50" height="50" relative="1" as="geometry">
            <mxPoint x="320" y="640" as="sourcePoint" />
            <mxPoint x="348" y="490" as="targetPoint" />
          </mxGeometry>
        </mxCell>
        <mxCell id="P5HjKtYgcSXGLR0DuAei-18" value="" style="endArrow=classic;html=1;rounded=0;exitX=0.5;exitY=0.5;exitDx=0;exitDy=0;exitPerimeter=0;entryX=0;entryY=0.5;entryDx=0;entryDy=0;" edge="1" parent="1" source="P5HjKtYgcSXGLR0DuAei-2" target="P5HjKtYgcSXGLR0DuAei-19">
          <mxGeometry width="50" height="50" relative="1" as="geometry">
            <mxPoint x="400" y="650" as="sourcePoint" />
            <mxPoint x="428" y="500" as="targetPoint" />
          </mxGeometry>
        </mxCell>
        <mxCell id="P5HjKtYgcSXGLR0DuAei-19" value="Запрос информации из Базы данных" style="ellipse;whiteSpace=wrap;html=1;" vertex="1" parent="1">
          <mxGeometry x="240" y="470" width="120" height="70" as="geometry" />
        </mxCell>
        <mxCell id="P5HjKtYgcSXGLR0DuAei-20" value="Запрос информации от сервера" style="ellipse;whiteSpace=wrap;html=1;" vertex="1" parent="1">
          <mxGeometry x="420" y="210" width="120" height="70" as="geometry" />
        </mxCell>
        <mxCell id="P5HjKtYgcSXGLR0DuAei-21" value="Заполнение и передача сессий сна серверу" style="ellipse;whiteSpace=wrap;html=1;" vertex="1" parent="1">
          <mxGeometry x="486" y="120" width="120" height="70" as="geometry" />
        </mxCell>
        <mxCell id="P5HjKtYgcSXGLR0DuAei-22" value="Отрисовка статистики и графиков" style="ellipse;whiteSpace=wrap;html=1;" vertex="1" parent="1">
          <mxGeometry x="456" y="455" width="120" height="70" as="geometry" />
        </mxCell>
        <mxCell id="P5HjKtYgcSXGLR0DuAei-23" value="" style="endArrow=classic;html=1;rounded=0;exitX=0.5;exitY=0.633;exitDx=0;exitDy=0;exitPerimeter=0;" edge="1" parent="1" source="P5HjKtYgcSXGLR0DuAei-3" target="P5HjKtYgcSXGLR0DuAei-20">
          <mxGeometry width="50" height="50" relative="1" as="geometry">
            <mxPoint x="626" y="470" as="sourcePoint" />
            <mxPoint x="721" y="495" as="targetPoint" />
          </mxGeometry>
        </mxCell>
        <mxCell id="P5HjKtYgcSXGLR0DuAei-24" value="" style="endArrow=classic;html=1;rounded=0;entryX=1;entryY=0.5;entryDx=0;entryDy=0;" edge="1" parent="1" target="P5HjKtYgcSXGLR0DuAei-28">
          <mxGeometry width="50" height="50" relative="1" as="geometry">
            <mxPoint x="686" y="350" as="sourcePoint" />
            <mxPoint x="721" y="505" as="targetPoint" />
          </mxGeometry>
        </mxCell>
        <mxCell id="P5HjKtYgcSXGLR0DuAei-25" value="" style="endArrow=classic;html=1;rounded=0;exitX=0.589;exitY=0.656;exitDx=0;exitDy=0;exitPerimeter=0;" edge="1" parent="1" source="P5HjKtYgcSXGLR0DuAei-3" target="P5HjKtYgcSXGLR0DuAei-22">
          <mxGeometry width="50" height="50" relative="1" as="geometry">
            <mxPoint x="626" y="480" as="sourcePoint" />
            <mxPoint x="721" y="505" as="targetPoint" />
          </mxGeometry>
        </mxCell>
        <mxCell id="P5HjKtYgcSXGLR0DuAei-26" value="" style="endArrow=classic;html=1;rounded=0;exitX=0.5;exitY=0.5;exitDx=0;exitDy=0;exitPerimeter=0;entryX=1;entryY=0.5;entryDx=0;entryDy=0;" edge="1" parent="1" source="P5HjKtYgcSXGLR0DuAei-3" target="P5HjKtYgcSXGLR0DuAei-21">
          <mxGeometry width="50" height="50" relative="1" as="geometry">
            <mxPoint x="636" y="420" as="sourcePoint" />
            <mxPoint x="731" y="445" as="targetPoint" />
          </mxGeometry>
        </mxCell>
        <mxCell id="P5HjKtYgcSXGLR0DuAei-28" value="Аутентификация пользователя" style="ellipse;whiteSpace=wrap;html=1;" vertex="1" parent="1">
          <mxGeometry x="420" y="320" width="120" height="70" as="geometry" />
        </mxCell>
        <mxCell id="6WYfwDXDBHmjr0L9XNK0-2" value="&amp;lt;&amp;lt;include&amp;gt;&amp;gt;" style="html=1;verticalAlign=bottom;labelBackgroundColor=none;endArrow=open;endFill=0;dashed=1;rounded=0;entryX=0.058;entryY=0.214;entryDx=0;entryDy=0;entryPerimeter=0;" edge="1" parent="1" source="P5HjKtYgcSXGLR0DuAei-16" target="P5HjKtYgcSXGLR0DuAei-22">
          <mxGeometry width="160" relative="1" as="geometry">
            <mxPoint x="520" y="580" as="sourcePoint" />
            <mxPoint x="680" y="580" as="targetPoint" />
          </mxGeometry>
        </mxCell>
        <mxCell id="6WYfwDXDBHmjr0L9XNK0-3" value="&amp;lt;&amp;lt;include&amp;gt;&amp;gt;" style="html=1;verticalAlign=bottom;labelBackgroundColor=none;endArrow=open;endFill=0;dashed=1;rounded=0;" edge="1" parent="1" source="P5HjKtYgcSXGLR0DuAei-13" target="P5HjKtYgcSXGLR0DuAei-22">
          <mxGeometry width="160" relative="1" as="geometry">
            <mxPoint x="470" y="620" as="sourcePoint" />
            <mxPoint x="611" y="668" as="targetPoint" />
          </mxGeometry>
        </mxCell>
        <mxCell id="6WYfwDXDBHmjr0L9XNK0-4" value="Регистрация пользователя" style="ellipse;whiteSpace=wrap;html=1;" vertex="1" parent="1">
          <mxGeometry x="570" y="530" width="120" height="70" as="geometry" />
        </mxCell>
        <mxCell id="6WYfwDXDBHmjr0L9XNK0-5" value="" style="endArrow=classic;html=1;rounded=0;exitX=0.522;exitY=0.689;exitDx=0;exitDy=0;exitPerimeter=0;" edge="1" parent="1" source="P5HjKtYgcSXGLR0DuAei-3" target="6WYfwDXDBHmjr0L9XNK0-4">
          <mxGeometry width="50" height="50" relative="1" as="geometry">
            <mxPoint x="854" y="450" as="sourcePoint" />
            <mxPoint x="720" y="562" as="targetPoint" />
          </mxGeometry>
        </mxCell>
      </root>
    </mxGraphModel>
  </diagram>
</mxfile>
